<svg xmlns="http://www.w3.org/2000/svg" width="964.4129638671875" height="861.5038452148438" viewBox="-486.0851135253906 -455.3323059082031 964.4129638671875 861.5038452148438"><title>Neo4j Graph Visualization</title><desc>Created using Neo4j (http://www.neo4j.com/)</desc><g class="layer relationships"><g class="relationship" transform="translate(201.75555577258604 336.1537810879783) rotate(318.5290347437249)"><path class="b-outline" fill="#A5ABB6" stroke="none" d="M 25 0.5 L 49.12067691561663 0.5 L 49.12067691561663 -0.5 L 25 -0.5 Z M 88.01130191561663 0.5 L 112.13197883123325 0.5 L 112.13197883123325 3.5 L 119.13197883123325 0 L 112.13197883123325 -3.5 L 112.13197883123325 -0.5 L 88.01130191561663 -0.5 Z"/><text text-anchor="middle" pointer-events="none" font-size="8px" fill="#000000" x="68.56598941561663" y="3" font-family="Helvetica Neue, Helvetica, Arial, sans-serif">PUNTUA</text></g><g class="relationship" transform="translate(201.75555577258604 336.1537810879783) rotate(270.4394020002693)"><path class="b-outline" fill="#A5ABB6" stroke="none" d="M 25 0.5 L 46.065193939393865 0.5 L 46.065193939393865 -0.5 L 25 -0.5 Z M 91.03785018939386 0.5 L 112.10304412878773 0.5 L 112.10304412878773 3.5 L 119.10304412878773 0 L 112.10304412878773 -3.5 L 112.10304412878773 -0.5 L 91.03785018939386 -0.5 Z"/><text text-anchor="middle" pointer-events="none" font-size="8px" fill="#000000" x="68.55152206439386" y="3" font-family="Helvetica Neue, Helvetica, Arial, sans-serif">REDACTO</text></g><g class="relationship" transform="translate(-99.96858887499553 -205.79575404368148) rotate(526.0636126787622)"><path class="b-outline" fill="#A5ABB6" stroke="none" d="M 25 0.5 L 48.87312866803836 0.5 L 48.87312866803836 -0.5 L 25 -0.5 Z M 87.76375366803836 0.5 L 111.63688233607672 0.5 L 111.63688233607672 3.5 L 118.63688233607672 0 L 111.63688233607672 -3.5 L 111.63688233607672 -0.5 L 87.76375366803836 -0.5 Z"/><text text-anchor="middle" pointer-events="none" font-size="8px" fill="#000000" x="68.31844116803836" y="3" transform="rotate(180 68.31844116803836 0)" font-family="Helvetica Neue, Helvetica, Arial, sans-serif">PUNTUA</text></g><g class="relationship" transform="translate(-99.96858887499553 -205.79575404368148) rotate(385.23601375636156)"><path class="b-outline" fill="#A5ABB6" stroke="none" d="M 25 0.5 L 48.50457620593173 0.5 L 48.50457620593173 -0.5 L 25 -0.5 Z M 87.39520120593173 0.5 L 110.89977741186345 0.5 L 110.89977741186345 3.5 L 117.89977741186345 0 L 110.89977741186345 -3.5 L 110.89977741186345 -0.5 L 87.39520120593173 -0.5 Z"/><text text-anchor="middle" pointer-events="none" font-size="8px" fill="#000000" x="67.94988870593173" y="3" font-family="Helvetica Neue, Helvetica, Arial, sans-serif">PUNTUA</text></g><g class="relationship" transform="translate(-234.44105274427363 62.46001884046249) rotate(350.0074472348448)"><path class="b-outline" fill="#A5ABB6" stroke="none" d="M 25 0.5 L 48.61387596406469 0.5 L 48.61387596406469 -0.5 L 25 -0.5 Z M 87.50450096406469 0.5 L 111.11837692812938 0.5 L 111.11837692812938 3.5 L 118.11837692812938 0 L 111.11837692812938 -3.5 L 111.11837692812938 -0.5 L 87.50450096406469 -0.5 Z"/><text text-anchor="middle" pointer-events="none" font-size="8px" fill="#000000" x="68.05918846406469" y="3" font-family="Helvetica Neue, Helvetica, Arial, sans-serif">PUNTUA</text></g><g class="relationship" transform="translate(-234.44105274427363 62.46001884046249) rotate(470.6118513411796)"><path class="b-outline" fill="#A5ABB6" stroke="none" d="M 25 0.5 L 48.545373737841956 0.5 L 48.545373737841956 -0.5 L 25 -0.5 Z M 87.43599873784196 0.5 L 110.98137247568391 0.5 L 110.98137247568391 3.5 L 117.98137247568391 0 L 110.98137247568391 -3.5 L 110.98137247568391 -0.5 L 87.43599873784196 -0.5 Z"/><text text-anchor="middle" pointer-events="none" font-size="8px" fill="#000000" x="67.99068623784196" y="3" transform="rotate(180 67.99068623784196 0)" font-family="Helvetica Neue, Helvetica, Arial, sans-serif">PUNTUA</text></g><g class="relationship" transform="translate(-234.44105274427363 62.46001884046249) rotate(417.07573362966815)"><path class="b-outline" fill="#A5ABB6" stroke="none" d="M 25 0.5 L 50.03323240402415 0.5 L 50.03323240402415 -0.5 L 25 -0.5 Z M 88.92385740402415 0.5 L 113.9570898080483 0.5 L 113.9570898080483 3.5 L 120.9570898080483 0 L 113.9570898080483 -3.5 L 113.9570898080483 -0.5 L 88.92385740402415 -0.5 Z"/><text text-anchor="middle" pointer-events="none" font-size="8px" fill="#000000" x="69.47854490402415" y="3" font-family="Helvetica Neue, Helvetica, Arial, sans-serif">PUNTUA</text></g></g><g class="layer nodes"><g class="node" aria-label="graph-node0" transform="translate(100.88905072313902,81.51285010625915)"><circle class="b-outline" cx="0" cy="0" r="25" fill="#F16667" stroke="#eb2728" stroke-width="2px"/><text class="caption" text-anchor="middle" pointer-events="none" x="0" y="0" font-size="10px" fill="#FFFFFF" font-family="Helvetica Neue, Helvetica, Arial, sans-serif"> Nikola</text><text class="caption" text-anchor="middle" pointer-events="none" x="0" y="10" font-size="10px" fill="#FFFFFF" font-family="Helvetica Neue, Helvetica, Arial, sans-serif"> Tesla</text></g><g class="node" aria-label="graph-node1" transform="translate(201.75555577258604,336.1537810879783)"><circle class="b-outline" cx="0" cy="0" r="25" fill="#F16667" stroke="#eb2728" stroke-width="2px"/><text class="caption" text-anchor="middle" pointer-events="none" x="0" y="5" font-size="10px" fill="#FFFFFF" font-family="Helvetica Neue, Helvetica, Arial, sans-serif"> bot32</text></g><g class="node" aria-label="graph-node2" transform="translate(1.466014870566465,377.1715684846355)"><circle class="b-outline" cx="0" cy="0" r="25" fill="#F16667" stroke="#eb2728" stroke-width="2px"/><text class="caption" text-anchor="middle" pointer-events="none" x="0" y="5" font-size="10px" fill="#FFFFFF" font-family="Helvetica Neue, Helvetica, Arial, sans-serif"> bot256</text></g><g class="node" aria-label="graph-node3" transform="translate(449.32788783933233,250.8731097072929)"><circle class="b-outline" cx="0" cy="0" r="25" fill="#F16667" stroke="#eb2728" stroke-width="2px"/><text class="caption" text-anchor="middle" pointer-events="none" x="0" y="5" font-size="10px" fill="#FFFFFF" font-family="Helvetica Neue, Helvetica, Arial, sans-serif"> bot2048</text></g><g class="node" aria-label="graph-node4" transform="translate(202.8606728632721,192.0549745578782)"><circle class="b-outline" cx="0" cy="0" r="25" fill="#D9C8AE" stroke="#c0a378" stroke-width="2px"/><text class="caption" text-anchor="middle" pointer-events="none" x="0" y="5" font-size="10px" fill="#2A2C34" font-family="Helvetica Neue, Helvetica, Arial, sans-serif"> "2022-0…</text></g><g class="node" aria-label="graph-node5" transform="translate(309.75240920984425,240.7037576754173)"><circle class="b-outline" cx="0" cy="0" r="25" fill="#D9C8AE" stroke="#c0a378" stroke-width="2px"/><text class="caption" text-anchor="middle" pointer-events="none" x="0" y="5" font-size="10px" fill="#2A2C34" font-family="Helvetica Neue, Helvetica, Arial, sans-serif"> "2022-0…</text></g><g class="node" aria-label="graph-node6" transform="translate(29.292726105063963,-144.8707277081437)"><circle class="b-outline" cx="0" cy="0" r="25" fill="#D9C8AE" stroke="#c0a378" stroke-width="2px"/><text class="caption" text-anchor="middle" pointer-events="none" x="0" y="5" font-size="10px" fill="#2A2C34" font-family="Helvetica Neue, Helvetica, Arial, sans-serif"> "2022-0…</text></g><g class="node" aria-label="graph-node7" transform="translate(368.70608746314036,-103.01736347459864)"><circle class="b-outline" cx="0" cy="0" r="25" fill="#D9C8AE" stroke="#c0a378" stroke-width="2px"/><text class="caption" text-anchor="middle" pointer-events="none" x="0" y="5" font-size="10px" fill="#2A2C34" font-family="Helvetica Neue, Helvetica, Arial, sans-serif"> "2022-0…</text></g><g class="node" aria-label="graph-node8" transform="translate(318.612305972489,-333.2072050283815)"><circle class="b-outline" cx="0" cy="0" r="25" fill="#8DCC93" stroke="#5db665" stroke-width="2px"/><text class="caption" text-anchor="middle" pointer-events="none" x="0" y="5" font-size="10px" fill="#2A2C34" font-family="Helvetica Neue, Helvetica, Arial, sans-serif"> "2022-0…</text></g><g class="node" aria-label="graph-node9" transform="translate(194.7479810112258,-211.79748123181102)"><circle class="b-outline" cx="0" cy="0" r="25" fill="#8DCC93" stroke="#5db665" stroke-width="2px"/><text class="caption" text-anchor="middle" pointer-events="none" x="0" y="5" font-size="10px" fill="#2A2C34" font-family="Helvetica Neue, Helvetica, Arial, sans-serif"> "2022-0…</text></g><g class="node" aria-label="graph-node10" transform="translate(89.8243888476527,-422.6784274685667)"><circle class="b-outline" cx="0" cy="0" r="25" fill="#8DCC93" stroke="#5db665" stroke-width="2px"/><text class="caption" text-anchor="middle" pointer-events="none" x="0" y="5" font-size="10px" fill="#2A2C34" font-family="Helvetica Neue, Helvetica, Arial, sans-serif"> "2022-0…</text></g><g class="node" aria-label="graph-node11" transform="translate(-115.266239634502,-426.3322953020828)"><circle class="b-outline" cx="0" cy="0" r="25" fill="#8DCC93" stroke="#5db665" stroke-width="2px"/><text class="caption" text-anchor="middle" pointer-events="none" x="0" y="5" font-size="10px" fill="#2A2C34" font-family="Helvetica Neue, Helvetica, Arial, sans-serif"> "2022-0…</text></g><g class="node" aria-label="graph-node12" transform="translate(-239.37733603337537,-171.20160449554444)"><circle class="b-outline" cx="0" cy="0" r="25" fill="#D9C8AE" stroke="#c0a378" stroke-width="2px"/><text class="caption" text-anchor="middle" pointer-events="none" x="0" y="5" font-size="10px" fill="#2A2C34" font-family="Helvetica Neue, Helvetica, Arial, sans-serif"> "2019-0…</text></g><g class="node" aria-label="graph-node13" transform="translate(-329.51980326895546,-327.11419090247813)"><circle class="b-outline" cx="0" cy="0" r="25" fill="#D9C8AE" stroke="#c0a378" stroke-width="2px"/><text class="caption" text-anchor="middle" pointer-events="none" x="0" y="5" font-size="10px" fill="#2A2C34" font-family="Helvetica Neue, Helvetica, Arial, sans-serif"> "2020-0…</text></g><g class="node" aria-label="graph-node14" transform="translate(-99.96858887499553,-205.79575404368148)"><circle class="b-outline" cx="0" cy="0" r="25" fill="#F16667" stroke="#eb2728" stroke-width="2px"/><text class="caption" text-anchor="middle" pointer-events="none" x="0" y="0" font-size="10px" fill="#FFFFFF" font-family="Helvetica Neue, Helvetica, Arial, sans-serif"> Miguel</text><text class="caption" text-anchor="middle" pointer-events="none" x="0" y="10" font-size="10px" fill="#FFFFFF" font-family="Helvetica Neue, Helvetica, Arial, sans-serif"> M…</text></g><g class="node" aria-label="graph-node15" transform="translate(-234.44105274427363,62.46001884046249)"><circle class="b-outline" cx="0" cy="0" r="25" fill="#F16667" stroke="#eb2728" stroke-width="2px"/><text class="caption" text-anchor="middle" pointer-events="none" x="0" y="5" font-size="10px" fill="#FFFFFF" font-family="Helvetica Neue, Helvetica, Arial, sans-serif"> Laro</text></g><g class="node" aria-label="graph-node16" transform="translate(-457.08510618917404,-3.1109467469748613)"><circle class="b-outline" cx="0" cy="0" r="25" fill="#D9C8AE" stroke="#c0a378" stroke-width="2px"/><text class="caption" text-anchor="middle" pointer-events="none" x="0" y="5" font-size="10px" fill="#2A2C34" font-family="Helvetica Neue, Helvetica, Arial, sans-serif"> "2020-0…</text></g><g class="node" aria-label="graph-node17" transform="translate(-393.9446662057505,302.9225018763128)"><circle class="b-outline" cx="0" cy="0" r="25" fill="#D9C8AE" stroke="#c0a378" stroke-width="2px"/><text class="caption" text-anchor="middle" pointer-events="none" x="0" y="5" font-size="10px" fill="#2A2C34" font-family="Helvetica Neue, Helvetica, Arial, sans-serif"> "2020-1…</text></g><g class="node" aria-label="graph-node18" transform="translate(-155.10899516685194,184.9749024496278)"><circle class="b-outline" cx="0" cy="0" r="25" fill="#D9C8AE" stroke="#c0a378" stroke-width="2px"/><text class="caption" text-anchor="middle" pointer-events="none" x="0" y="5" font-size="10px" fill="#2A2C34" font-family="Helvetica Neue, Helvetica, Arial, sans-serif"> "2018-0…</text></g><g class="node" aria-label="graph-node19" transform="translate(-284.7755373846911,196.28868740969634)"><circle class="b-outline" cx="0" cy="0" r="25" fill="#D9C8AE" stroke="#c0a378" stroke-width="2px"/><text class="caption" text-anchor="middle" pointer-events="none" x="0" y="5" font-size="10px" fill="#2A2C34" font-family="Helvetica Neue, Helvetica, Arial, sans-serif"> "2018-0…</text></g><g class="node" aria-label="graph-node21" transform="translate(-93.49373647328882,37.62609344496575)"><circle class="b-outline" cx="0" cy="0" r="25" fill="#D9C8AE" stroke="#c0a378" stroke-width="2px"/><text class="caption" text-anchor="middle" pointer-events="none" x="0" y="5" font-size="10px" fill="#2A2C34" font-family="Helvetica Neue, Helvetica, Arial, sans-serif"> "2018-0…</text></g></g></svg>